<svg width="641" height="96" xmlns="http://www.w3.org/2000/svg"
     xml:space="preserve"
     overflow="hidden"
     viewBox="0 0 641 96">
    <g transform="translate(-330 -311)">
        <path d="M148.962 139.179 134.722 139.179 129.786 107.001 120.573 130.668 117.258 139.18 110.993 139.18 107.678 130.668 98.4594 107 93.5239 139.179 79.2847 139.179 88.8122 82.2265 88.8105 82.2225 88.8122 82.2225 88.813 82.22 102.262 82.22 102.261 82.2225 103.05 82.2225 114.126 112.838 125.193 82.2225 125.984 82.2225 125.984 82.22 139.434 82.22 148.962 139.179Z" 
              fill="#9aafd4" transform="matrix(1.00501 0 0 1 251.483 240.276)"/>
        <path d="M121.769 100.463 135.218 100.463 135.218 139.225 121.769 139.225 121.769 135.873C118.542 138.85 114.393 140.641 109.867 140.641 99.5791 140.641 91.2398 131.396 91.2398 119.99 91.2398 108.585 99.5791 99.3396 109.867 99.3396 114.393 99.3396 118.542 101.132 121.769 104.108L121.769 100.463ZM121.769 119.99C121.769 115.082 118.283 111.102 113.576 111.102 108.869 111.102 105.054 115.082 105.054 119.99 105.054 124.9 108.869 128.879 113.576 128.879 118.283 128.879 121.769 124.899 121.769 119.99Z"
              fill="#9aafd4" transform="matrix(1.00501 0 0 1 313.358 240.33)"/>
        <path d="M121.386 129.5 121.386 140.659C113.512 140.659 101.153 138.999 101.153 125.534L101.153 112.405 96.9098 112.405 96.9098 100.546 101.153 100.546 101.153 88.9353 114.601 88.9353 114.601 123.175C114.601 125.479 115.851 129.5 121.386 129.5Z"
              fill="#9aafd4" transform="matrix(1.00501 0 0 1 357.974 240.298)"/>
        <path d="M117.161 108.22C117.161 103.974 120.497 100.53 124.614 100.53 128.729 100.53 132.065 103.974 132.065 108.22 132.065 112.468 128.729 115.911 124.614 115.911 120.497 115.911 117.161 112.468 117.161 108.22Z"
              fill="#697fbc" transform="matrix(1.00501 0 0 1 357.974 240.298)"/>
        <path d="M130.231 126.107C130.231 136.707 120.474 140.659 112.302 140.659 104.129 140.659 97.2385 136.21 97.2385 136.21L102.089 126.559C102.089 126.559 107.427 130.48 112.67 130.48 114.857 130.48 116.858 129.134 116.858 127.54 116.858 121.536 100.106 126.739 100.106 113.139 100.106 102.346 109.821 99.1145 116.932 99.1145 120.933 99.1145 126.054 100.135 129.055 101.603L124.572 110.5C124.572 110.5 120.642 108.538 117.372 108.538 114.569 108.538 113.258 109.949 113.258 111.329 113.258 115.911 130.231 112.405 130.231 126.107Z"
              fill="#9aafd4" transform="matrix(1.00501 0 0 1 395.779 240.308)"/>
        <path d="M134.153 100.546 134.153 125.517C134.153 139.87 119.398 140.659 114.093 140.659 108.789 140.659 94.0338 139.87 94.0338 125.517L94.0338 100.546 107.482 100.546 107.482 123.175C107.482 125.154 108.24 129.499 114.093 129.499 119.946 129.499 120.704 125.154 120.704 123.175L120.704 100.546 134.153 100.546Z"
              fill="#9aafd4" transform="matrix(1.00501 0 0 1 438.078 240.273)"/>
        <path d="M146.185 113.987 146.185 139.226 132.737 139.226 132.737 119.027C132.737 112.798 130.578 110.575 126.714 110.575 123.621 110.575 122.107 112.655 121.367 115.052L121.367 139.226 107.918 139.226 107.918 119.027C107.918 112.798 105.759 110.575 101.895 110.575 96.3013 110.575 95.8549 115.003 95.8549 118.187L95.8549 139.225 82.407 139.225 82.407 100.546 95.8549 100.546 95.8549 105.263C95.8549 105.263 98.3433 99.7177 106.965 99.7177 112.844 99.7177 118.152 102.296 120.322 107.941 121.676 105.253 125.254 99.7177 131.785 99.7177 139.463 99.7177 146.186 104.095 146.185 113.987Z"
              fill="#9aafd4" transform="matrix(1.00501 0 0 1 497.678 240.28)"/>
        <path d="M136.749 119.886C136.749 131.359 127.808 140.763 114.117 140.763 100.427 140.763 91.4867 131.359 91.4867 119.886 91.4867 108.413 100.427 99.1136 114.117 99.1136 127.808 99.1136 136.749 108.413 136.749 119.886ZM122.712 119.938C122.712 114.975 118.864 110.952 114.117 110.952 109.371 110.952 105.524 114.975 105.524 119.938 105.524 124.901 109.371 128.925 114.117 128.925 118.864 128.925 122.712 124.901 122.712 119.938Z"
              fill="#9aafd4" transform="matrix(1.00501 0 0 1 558.51 240.309)"/>
        <path d="M107.928 107.284 107.928 101.588C111.661 101.312 113.557 97.9399 114.042 95.8126 109.934 95.804 106.606 92.3644 106.606 88.1224 106.606 83.8751 109.942 80.4316 114.058 80.4316 117.591 80.4316 120.543 82.9718 121.31 86.3774L121.313 86.3743C121.326 86.4256 121.336 86.481 121.348 86.5331 121.353 86.5498 121.357 86.5666 121.36 86.5838 122.85 92.8815 119.432 105.745 107.928 107.284Z"
              fill="#9aafd4" transform="matrix(1.00501 0 0 1 593.645 240.339)"/>
        <path d="M130.231 126.107C130.231 136.707 120.474 140.659 112.302 140.659 104.129 140.659 97.2385 136.21 97.2385 136.21L102.089 126.559C102.089 126.559 107.427 130.48 112.67 130.48 114.857 130.48 116.858 129.134 116.858 127.54 116.858 121.536 100.106 126.739 100.106 113.139 100.106 102.346 109.821 99.1145 116.932 99.1145 120.933 99.1145 126.054 100.135 129.055 101.603L124.572 110.5C124.572 110.5 120.642 108.538 117.372 108.538 114.569 108.538 113.258 109.949 113.258 111.329 113.258 115.911 130.231 112.405 130.231 126.107Z"
              fill="#9aafd4" transform="matrix(1.00501 0 0 1 622.229 240.308)"/>
        <path d="M136.53 122.666C136.53 129.059 132.943 139.179 117.426 139.179L94.2804 139.179 94.2804 82.22 115.405 82.22C120.234 82.22 131.313 83.4041 131.313 96.9549 131.313 102.527 128.812 106.942 125.214 108.868 129.305 109.352 136.53 112.428 136.53 122.666ZM121.981 121.686C121.981 117.043 117.833 115.654 111.841 115.654L108.519 115.654 108.519 127.717 112.958 127.717C117.77 127.717 121.981 126.329 121.981 121.686ZM108.52 104.645 111.328 104.645C113.156 104.645 118.088 104.215 118.088 99.1416 118.088 94.0672 113.055 93.6374 111.328 93.6374L108.52 93.6374 108.52 104.645Z"
              fill="#9aafd4" transform="matrix(1.00501 0 0 1 689.465 240.276)"/>
        <path d="M107.386 139.226 107.386 78.3133 120.834 78.3133 120.834 139.226 107.386 139.226Z"
              fill="#9aafd4" transform="matrix(1.00501 0 0 1 724.83 240.321)"/>
        <path d="M136.749 119.886C136.749 131.359 127.808 140.763 114.117 140.763 100.427 140.763 91.4867 131.359 91.4867 119.886 91.4867 108.413 100.427 99.1136 114.117 99.1136 127.808 99.1136 136.749 108.413 136.749 119.886ZM122.712 119.938C122.712 114.975 118.864 110.952 114.117 110.952 109.371 110.952 105.524 114.975 105.524 119.938 105.524 124.901 109.371 128.925 114.117 128.925 118.864 128.925 122.712 124.901 122.712 119.938Z"
              fill="#9aafd4" transform="matrix(1.00501 0 0 1 760.605 240.309)"/>
        <path d="M135.218 100.546 135.218 138.009C135.218 150.82 127.246 158.677 113.156 158.677 98.2778 158.677 91.7737 148.16 91.7737 143.9L106.763 143.9C106.763 143.9 107.636 147.744 113.082 147.744 119.218 147.744 121.768 143.331 121.768 139.225L121.768 135.873C118.541 138.849 114.393 140.64 109.867 140.64 99.5795 140.64 91.2401 131.395 91.2401 119.99 91.2401 108.584 99.5795 99.3396 109.867 99.3396 114.392 99.3396 118.541 101.131 121.768 104.108L121.768 100.546 135.218 100.546ZM121.768 119.99C121.768 115.082 118.283 111.102 113.576 111.102 108.868 111.102 105.053 115.082 105.053 119.99 105.053 124.9 108.868 128.879 113.576 128.879 118.283 128.879 121.768 124.899 121.768 119.99Z"
              fill="#9aafd4" transform="matrix(1.00501 0 0 1 810.935 240.33)"/>
    </g>
</svg>
